<svg width="463" height="181" viewBox="0 0 463 181" fill="none" xmlns="http://www.w3.org/2000/svg">
<path fill-rule="evenodd" clip-rule="evenodd" d="M0 181V0H221.444V20.1111H241.556V0H462.556V80.4444H442.444V100.556H462.556V181H241.556V140.778H221.444V181H0ZM60.3333 80.4444V20.1111H20.1111V140.778H60.3333V100.556H80.4444V120.667H100.556V140.778H140.778V120.667H120.667V100.556H100.556V80.4444H120.667V60.3333H140.778V20.1111H100.556V60.3333H80.4444V80.4444H60.3333ZM301.667 20.1111H261.667V40.2222H241.556V60.3333H221.444V40.2222H201.333V20.1111H161.111V140.778H201.333V80.4444H221.444V100.556H241.556V80.4444H261.667V140.778H301.667V20.1111ZM322 140.778H362V100.556H382.111V120.667H402.222V140.778H442.444V120.667H422.333V100.556H402.222V80.4444H422.333V60.3333H442.444V20.1111H402.222V60.3333H382.111V80.4444H362V20.1111H322V140.778Z" fill="url(#paint0_linear_408_2)"/>
<defs>
<linearGradient id="paint0_linear_408_2" x1="0.000137994" y1="90.5885" x2="462.557" y2="90.5828" gradientUnits="userSpaceOnUse">
<stop stop-color="#36F1CD"/>
<stop offset="0.5" stop-color="#36F1CD"/>
<stop offset="1" stop-color="#36F1CD"/>
</linearGradient>
</defs>
</svg>
